<?xml version="1.0" standalone="no"?>
<!DOCTYPE svg PUBLIC "-//W3C//DTD SVG 20010904//EN"
 "http://www.w3.org/TR/2001/REC-SVG-20010904/DTD/svg10.dtd">
<svg version="1.0" xmlns="http://www.w3.org/2000/svg"
 width="225.000000pt" height="225.000000pt" viewBox="0 0 225.000000 225.000000"
 preserveAspectRatio="xMidYMid meet">
<metadata>
Created by potrace 1.10, written by Peter Selinger 2001-2011
</metadata>
<g transform="translate(0.000000,225.000000) scale(0.100000,-0.100000)"
fill="#000000" stroke="none">
<path d="M394 1440 c-134 -27 -222 -118 -211 -219 11 -98 132 -152 272 -122
26 5 31 12 40 58 12 60 25 80 25 37 0 -39 25 -73 66 -90 39 -16 133 -18 186
-4 66 19 127 86 129 142 0 23 0 23 11 2 11 -24 48 -44 81 -44 12 0 29 -5 37
-10 13 -9 13 -11 0 -20 -23 -15 -63 -12 -88 6 -13 9 -24 14 -26 13 -1 -2 -14
-21 -29 -41 l-27 -37 37 -10 c92 -26 216 -4 246 42 41 64 22 110 -50 123 -58
10 -71 19 -45 33 17 9 29 8 56 -3 35 -15 35 -14 55 20 12 19 21 37 21 39 0 2
-19 9 -42 16 -84 22 -194 -14 -218 -71 l-13 -32 -13 31 c-50 118 -301 98 -361
-28 -30 -66 -129 -95 -173 -51 -27 27 -25 56 4 85 35 35 88 42 130 17 l34 -20
10 62 c5 33 7 64 3 67 -11 12 -105 17 -147 9z m104 -43 c14 -16 14 -19 2 -27
-8 -6 -34 -10 -58 -10 -45 0 -102 -23 -102 -41 0 -6 -4 -8 -8 -5 -5 3 -9 0
-10 -7 -1 -7 -4 -24 -8 -38 -4 -20 1 -34 25 -61 27 -31 36 -35 76 -33 37 1 45
-1 45 -16 0 -29 -37 -42 -101 -36 -140 12 -189 105 -108 200 42 49 85 73 154
86 57 11 74 9 93 -12z m303 -61 c37 -16 89 -61 89 -77 0 -16 -32 -62 -64 -91
-40 -38 -87 -51 -162 -46 -54 3 -68 8 -95 33 -30 29 -32 43 -18 94 6 23 58 64
103 82 52 21 104 23 147 5z m239 -18 c-11 -12 -20 -27 -20 -34 0 -14 43 -44
63 -44 8 0 22 -9 32 -20 25 -28 7 -66 -41 -86 -41 -17 -54 -12 -36 16 7 11 12
25 12 31 0 19 -41 49 -67 49 -12 0 -23 5 -23 11 0 5 -4 8 -9 4 -5 -3 -12 -1
-16 5 -8 12 4 52 13 46 4 -2 15 6 25 18 11 12 32 22 53 24 l35 2 -21 -22z"/>
<path d="M685 1306 c-66 -29 -89 -88 -50 -130 52 -56 165 -16 165 58 0 30 -30
76 -50 76 -4 0 -14 2 -22 5 -7 2 -26 -2 -43 -9z m75 -36 c25 -25 25 -45 0 -70
-29 -29 -66 -35 -95 -16 -39 25 -30 67 20 94 30 17 53 14 75 -8z"/>
<path d="M1319 1373 l-126 -4 -12 -38 c-16 -53 -15 -54 24 -47 19 4 35 6 35 4
0 -2 -14 -46 -30 -98 -17 -51 -30 -95 -30 -97 0 -2 28 -3 63 -3 l62 0 29 101
29 101 33 -6 c31 -6 33 -5 48 41 18 54 18 54 9 51 -5 -1 -65 -4 -134 -5z m50
-31 c37 -2 42 -4 31 -17 -7 -8 -18 -15 -26 -15 -24 0 -51 -39 -64 -94 -15 -66
-41 -102 -65 -92 -19 7 -18 25 6 108 13 46 12 48 -14 72 -25 23 -37 43 -19 33
4 -3 16 -1 27 3 11 4 34 6 50 5 17 -1 50 -2 74 -3z"/>
<path d="M1556 1370 c-98 -30 -170 -142 -134 -210 7 -13 29 -35 48 -48 29 -20
44 -22 109 -20 82 3 74 -3 94 79 l7 27 -41 -14 c-77 -27 -128 28 -75 81 29 29
71 33 103 10 21 -15 22 -14 28 22 4 21 9 45 11 54 7 27 -85 38 -150 19z m101
-37 c3 -9 -6 -13 -29 -13 -33 0 -72 -20 -95 -50 -33 -41 7 -120 62 -120 14 0
25 -5 25 -10 0 -16 -41 -28 -75 -23 -78 13 -115 63 -92 128 13 36 69 85 98 85
10 0 20 4 23 9 8 13 79 8 83 -6z"/>
<path d="M1845 1371 c-118 -31 -183 -129 -143 -216 31 -68 178 -88 277 -39
110 55 134 180 45 235 -38 23 -129 33 -179 20z m128 -32 c40 -20 77 -62 77
-86 0 -31 -38 -88 -73 -108 -38 -23 -144 -31 -190 -16 -20 7 -45 23 -56 37
-34 43 -2 117 64 152 59 31 140 40 178 21z"/>
<path d="M1861 1309 c-35 -14 -71 -56 -71 -84 0 -39 38 -75 77 -75 39 0 96 26
88 40 -4 6 -1 10 4 10 19 0 12 69 -9 90 -11 11 -24 20 -29 20 -5 0 -15 2 -23
4 -7 3 -24 0 -37 -5z m67 -35 c58 -40 -11 -121 -82 -95 -36 14 -36 62 0 90 32
25 52 26 82 5z"/>
<path d="M2004 1109 c-3 -6 -2 -15 4 -21 13 -13 32 -2 32 18 0 16 -26 19 -36
3z"/>
<path d="M190 1035 c0 -13 38 -15 285 -15 247 0 285 2 285 15 0 13 -38 15
-285 15 -247 0 -285 -2 -285 -15z"/>
<path d="M776 1023 c21 -97 24 -103 48 -103 18 0 27 9 39 38 l15 37 1 -37 c1
-33 4 -38 26 -38 15 0 30 9 38 23 8 12 24 38 36 57 l23 35 -6 -42 c-3 -23 -9
-48 -12 -57 -5 -13 1 -16 25 -16 26 0 31 4 31 25 0 19 5 25 21 25 18 0 20 -4
15 -26 -6 -23 -4 -25 21 -22 20 2 29 9 31 24 3 22 3 22 28 -3 21 -21 32 -25
66 -20 22 3 51 16 65 29 l24 23 -10 -28 -11 -27 55 0 c48 0 55 2 55 20 0 13
-7 20 -20 20 -22 0 -24 10 -11 58 9 31 9 32 -20 32 -22 0 -29 -5 -29 -19 0
-11 -4 -23 -10 -26 -5 -3 -10 1 -10 9 0 42 -98 49 -137 10 l-26 -26 5 26 c5
23 2 26 -23 26 -22 0 -29 -5 -29 -20 0 -14 -7 -20 -21 -20 -16 0 -19 4 -14 20
6 18 2 20 -49 20 l-55 0 -20 -42 -19 -43 -1 43 c-1 37 -4 42 -25 42 -18 0 -27
-9 -39 -37 l-15 -38 -1 38 c-1 34 -3 37 -31 37 -28 0 -30 -2 -24 -27z m472
-35 c-3 -24 -34 -36 -49 -21 -16 16 2 43 28 43 20 0 24 -4 21 -22z"/>
<path d="M1426 1013 c-4 -21 -9 -50 -12 -65 l-5 -28 93 2 c51 0 101 5 111 10
11 5 17 5 17 -2 0 -13 47 -13 55 0 3 6 15 10 26 10 10 0 19 -4 19 -10 0 -6 33
-10 80 -10 44 0 80 2 80 4 0 2 3 11 6 20 5 12 0 16 -21 16 -20 0 -25 4 -21 18
20 69 20 72 -12 72 -29 0 -31 -2 -37 -55 -9 -66 -21 -64 -30 5 -7 49 -8 50
-41 50 -29 0 -37 -6 -60 -46 -25 -43 -28 -45 -35 -25 -5 12 -17 21 -29 21 -11
0 -20 5 -20 11 0 6 12 9 27 7 20 -2 29 2 31 15 3 14 -4 17 -33 17 -49 0 -75
-16 -75 -45 0 -18 7 -26 25 -31 46 -12 25 -23 -32 -18 -61 6 -84 14 -40 14 17
0 27 5 27 15 0 8 -9 15 -20 15 -11 0 -20 5 -20 10 0 6 11 10 24 10 13 0 26 7
30 15 4 12 -5 15 -48 15 l-54 0 -6 -37z"/>
<path d="M1914 985 l-9 -65 52 0 c47 0 53 2 53 21 0 16 -5 20 -20 16 -11 -3
-23 -1 -26 4 -3 5 6 9 19 9 14 0 27 7 31 15 4 11 -1 15 -19 15 -14 0 -25 5
-25 10 0 6 14 10 30 10 20 0 30 5 30 15 0 11 -13 15 -53 15 l-53 0 -10 -65z"/>
<path d="M190 985 c0 -13 39 -15 290 -15 251 0 290 2 290 15 0 13 -39 15 -290
15 -251 0 -290 -2 -290 -15z"/>
<path d="M190 938 c0 -17 21 -18 295 -18 253 0 295 2 295 15 0 12 -43 15 -295
17 -275 3 -295 2 -295 -14z"/>
</g>
</svg>
