<?xml version="1.0" standalone="no"?>
<!DOCTYPE svg PUBLIC "-//W3C//DTD SVG 20010904//EN"
 "http://www.w3.org/TR/2001/REC-SVG-20010904/DTD/svg10.dtd">
<svg version="1.0" xmlns="http://www.w3.org/2000/svg"
 width="300.000000pt" height="137.000000pt" viewBox="0 0 300.000000 137.000000"
 preserveAspectRatio="xMidYMid meet">
<metadata>
Created by potrace 1.10, written by Peter Selinger 2001-2011
</metadata>
<g transform="translate(0.000000,137.000000) scale(0.100000,-0.100000)"
fill="#000000" stroke="none">
<path d="M540 1268 c-56 -10 -91 -28 -54 -28 10 0 48 -14 83 -30 35 -17 66
-28 69 -26 2 3 1 26 -2 51 -8 50 -5 49 -96 33z m78 -36 c4 -25 2 -26 -33 -10
-27 12 -32 23 -12 31 23 10 42 2 45 -21z"/>
<path d="M676 1263 c12 -11 29 -34 38 -52 l17 -32 42 38 c49 44 45 48 -55 58
-62 6 -63 6 -42 -12z m91 -27 c-6 -19 -35 -18 -46 2 -9 16 -7 18 20 14 16 -2
28 -9 26 -16z"/>
<path d="M833 1203 c-6 -27 -10 -49 -8 -51 1 -1 26 3 54 9 29 6 61 9 72 6 38
-10 18 13 -42 48 -33 19 -61 35 -62 35 -1 0 -7 -21 -14 -47z m56 -14 c-12 -23
-28 -24 -36 -3 -7 18 14 35 33 27 10 -4 11 -10 3 -24z"/>
<path d="M359 1197 c-31 -18 -67 -40 -80 -50 -24 -17 -24 -17 16 -10 22 5 89
7 150 7 l109 -1 -29 24 c-40 33 -88 63 -100 63 -5 0 -35 -15 -66 -33z m119
-10 c26 -20 10 -27 -64 -27 -77 0 -77 0 -53 19 13 10 31 20 39 23 18 7 60 -1
78 -15z"/>
<path d="M938 1123 c-27 -14 -48 -29 -48 -33 0 -4 19 -10 42 -14 23 -4 62 -16
87 -27 24 -10 46 -17 49 -15 9 9 -63 117 -77 115 -3 0 -27 -12 -53 -26z m78
-41 c-7 -12 -68 0 -73 14 -2 6 7 15 19 21 18 9 27 7 42 -7 10 -10 16 -22 12
-28z"/>
<path d="M194 1058 c-47 -61 -89 -138 -75 -138 5 0 12 4 15 9 14 23 223 105
319 125 15 4 27 10 27 15 0 8 -91 25 -195 36 l-50 5 -41 -52z m202 14 c12 -7
6 -12 -28 -24 -24 -9 -79 -29 -123 -46 -44 -16 -81 -28 -83 -27 -6 5 21 47 53
83 30 34 30 34 97 29 37 -3 75 -10 84 -15z"/>
<path d="M820 991 c-52 -27 -73 -62 -78 -128 -3 -48 0 -64 20 -93 42 -63 135
-90 186 -54 21 14 25 14 47 0 13 -9 27 -16 30 -16 3 0 5 31 5 70 l0 69 -37 -3
c-26 -3 -39 -9 -44 -24 -27 -71 -129 -37 -129 43 0 68 61 103 112 65 27 -20
32 -20 64 -8 l35 14 -21 27 c-45 57 -125 73 -190 38z"/>
<path d="M1108 1002 l-38 -3 0 -100 c0 -118 14 -160 61 -184 47 -25 123 -16
157 19 26 25 27 32 30 149 l4 122 -41 0 -41 0 0 -113 c0 -109 -1 -113 -24
-123 -17 -8 -29 -8 -44 0 -19 10 -22 21 -24 124 l-3 112 -37 -3z"/>
<path d="M1380 855 l0 -151 40 4 40 4 0 147 0 146 -40 0 -40 0 0 -150z"/>
<path d="M1530 1005 c0 0 -2 -66 -3 -148 l-2 -147 98 0 97 0 0 36 0 35 -57 -2
-58 -3 0 114 -1 113 -37 1 c-20 1 -37 1 -37 1z"/>
<path d="M1758 1000 c-1 -3 -2 -69 -2 -147 l-1 -143 40 0 40 0 -3 50 -4 50 56
0 56 0 0 36 0 36 -55 -4 -55 -5 0 34 0 34 62 -2 63 -3 0 33 -1 33 -97 1 c-53
1 -98 0 -99 -3z m58 -134 c8 -8 14 -17 14 -21 0 -8 -26 -35 -34 -35 -3 0 -6
16 -6 35 0 39 4 42 26 21z"/>
<path d="M2062 989 c-108 -55 -109 -209 -2 -266 53 -28 91 -29 146 -2 32 15
48 32 65 65 65 136 -74 272 -209 203z m101 -60 c25 -11 47 -47 47 -74 0 -53
-55 -94 -103 -76 -61 23 -64 127 -4 151 30 12 32 12 60 -1z"/>
<path d="M2340 855 l0 -151 40 4 40 4 0 44 c0 40 2 44 24 44 18 0 30 -11 48
-42 22 -40 26 -43 71 -46 l48 -3 -35 56 c-36 55 -36 55 -16 75 31 31 27 100
-6 131 -22 21 -38 25 -120 29 l-94 5 0 -150z m148 73 c31 -31 3 -78 -47 -78
-18 0 -21 6 -21 45 0 43 1 45 28 45 15 0 33 -5 40 -12z m-83 -117 c-5 -18 -10
-20 -21 -10 -15 12 -19 41 -7 53 13 13 35 -21 28 -43z m116 26 c-1 -4 -1 -17
-2 -29 0 -13 -3 -17 -6 -10 -2 6 -10 9 -16 5 -7 -4 -6 1 2 10 9 12 10 17 2 17
-7 0 -9 5 -6 11 7 11 27 8 26 -4z"/>
<path d="M2644 1001 c-2 -2 -4 -69 -4 -148 l0 -143 80 0 c93 0 131 15 160 63
39 63 20 179 -33 209 -21 12 -194 28 -203 19z m160 -83 c9 -12 16 -41 16 -63
0 -56 -22 -85 -66 -85 l-34 0 0 85 0 85 34 0 c25 0 39 -7 50 -22z"/>
<path d="M360 960 c-52 -10 -132 -30 -177 -44 l-81 -26 -7 -50 c-7 -53 1 -144
16 -172 8 -15 19 -8 76 52 65 70 227 207 271 229 20 11 23 33 4 30 -4 -1 -50
-9 -102 -19z m49 -17 c0 -5 -33 -34 -73 -66 -41 -32 -103 -88 -140 -125 -36
-36 -69 -63 -73 -59 -21 21 -18 166 3 187 6 6 50 19 99 31 50 12 101 25 115
29 33 10 70 12 69 3z"/>
<path d="M500 870 c-14 -10 -65 -43 -115 -73 -49 -31 -127 -82 -172 -115 l-82
-59 29 -39 c16 -21 44 -51 62 -65 42 -33 118 -72 126 -65 6 7 42 107 41 116 0
3 -10 -15 -22 -40 -20 -40 -26 -45 -52 -42 -36 4 -104 55 -136 100 l-23 34 25
19 c52 41 248 169 258 169 6 0 11 4 11 8 0 9 50 35 56 30 2 -3 -16 -43 -83
-186 -9 -18 -13 -35 -11 -38 5 -5 130 238 130 253 -1 14 -17 12 -42 -7z"/>
<path d="M607 765 c-26 -41 -43 -75 -39 -75 4 0 21 20 36 45 16 25 35 50 42
56 15 12 16 5 18 -96 1 -25 5 -45 9 -45 13 0 3 183 -9 187 -6 2 -32 -30 -57
-72z"/>
<path d="M500 653 c-74 -38 -89 -136 -30 -195 39 -39 114 -40 159 -2 39 32 39
39 1 53 -19 6 -30 6 -30 0 0 -5 -11 -14 -25 -21 -37 -17 -75 12 -75 57 0 57
51 85 91 50 11 -11 26 -14 43 -9 33 8 33 14 -2 48 -37 35 -87 42 -132 19z"/>
<path d="M1703 655 c-69 -30 -52 -112 27 -131 34 -8 45 -15 45 -30 0 -25 -37
-30 -59 -9 -18 19 -56 12 -56 -10 0 -44 122 -63 161 -24 14 14 19 30 17 57 -3
38 -23 55 -81 67 -32 6 -47 33 -26 46 20 12 25 11 44 -7 17 -17 65 -12 65 6 0
15 -61 50 -85 50 -11 -1 -34 -7 -52 -15z"/>
<path d="M2060 550 l0 -120 30 0 30 0 0 66 c0 62 1 65 23 62 20 -3 22 -8 20
-65 l-2 -63 29 0 30 0 0 80 c0 70 -2 81 -21 90 -23 13 -69 6 -69 -10 0 -6 -4
-10 -9 -10 -5 0 -6 20 -3 45 5 45 4 45 -27 45 l-31 0 0 -120z"/>
<path d="M2670 550 l0 -120 29 0 30 0 0 120 -1 120 -29 0 -29 0 0 -120z"/>
<path d="M1295 631 c3 -11 1 -22 -5 -26 -13 -8 -13 -45 0 -45 6 0 10 -24 10
-53 0 -62 11 -77 57 -77 29 0 33 3 33 25 0 18 -5 25 -20 25 -17 0 -20 7 -20
40 0 29 4 40 15 40 9 0 15 9 15 25 0 19 -4 23 -16 18 -14 -5 -16 -1 -12 20 5
25 3 27 -29 27 -29 0 -33 -3 -28 -19z"/>
<path d="M723 600 c-52 -21 -63 -100 -20 -147 47 -53 146 -14 149 57 3 77 -57
119 -129 90z m77 -79 c0 -26 -25 -44 -50 -36 -25 8 -27 50 -3 64 23 12 53 -4
53 -28z"/>
<path d="M886 600 c-1 -3 0 -41 3 -85 l6 -80 33 -3 c18 -2 40 2 48 9 10 8 14
8 14 0 0 -6 14 -11 30 -11 l31 0 -3 87 -3 86 -27 1 c-28 2 -28 1 -28 -60 0
-43 -4 -63 -13 -67 -28 -11 -39 9 -36 68 3 57 2 58 -25 60 -15 0 -28 -2 -30
-5z"/>
<path d="M1090 518 l0 -88 31 0 31 0 -4 63 c-3 58 -2 62 20 65 21 3 22 0 22
-62 l0 -66 30 0 30 0 0 74 c0 54 -4 79 -16 90 -20 21 -53 20 -76 -1 -14 -13
-18 -13 -18 -2 0 8 -10 14 -25 14 -25 0 -25 -1 -25 -87z"/>
<path d="M1400 598 c0 -4 14 -40 32 -78 31 -70 31 -72 15 -106 -21 -44 -22
-41 13 -40 28 1 31 6 70 106 22 58 40 109 40 115 0 5 -12 9 -27 9 -25 0 -29
-5 -37 -42 -5 -23 -12 -42 -15 -42 -4 0 -13 19 -21 42 -13 34 -20 42 -42 43
-16 0 -28 -3 -28 -7z"/>
<path d="M1895 585 c-34 -33 -35 -102 -2 -133 33 -32 96 -30 127 3 l23 24 -27
11 c-19 7 -32 6 -46 -2 -14 -9 -22 -9 -34 1 -36 30 -4 79 39 59 12 -5 30 -6
45 0 l24 9 -27 26 c-35 36 -88 37 -122 2z"/>
<path d="M2285 587 c-62 -53 -25 -157 55 -157 57 0 90 31 90 85 0 56 -23 85
-76 92 -33 4 -45 1 -69 -20z m93 -69 c-4 -26 -30 -43 -52 -35 -21 8 -21 53 1
66 25 13 55 -5 51 -31z"/>
<path d="M2505 598 c-33 -18 -45 -40 -45 -84 0 -53 33 -84 89 -84 68 0 108 68
77 129 -25 48 -75 65 -121 39z m65 -52 c16 -21 9 -60 -13 -64 -40 -8 -64 47
-29 67 23 14 28 13 42 -3z"/>
<path d="M2782 594 c-37 -26 -26 -65 26 -89 23 -11 41 -24 38 -30 -3 -10 -11
-10 -58 1 -22 5 -28 3 -28 -9 0 -22 31 -37 78 -37 43 0 72 23 72 57 0 23 -29
53 -52 53 -24 0 -48 11 -48 22 0 5 18 7 44 3 51 -8 67 6 34 29 -29 20 -77 20
-106 0z"/>
<path d="M392 457 c-7 -8 -9 -17 -5 -20 11 -11 65 -8 58 3 -4 6 -10 8 -15 5
-5 -3 -13 2 -18 10 -7 14 -10 14 -20 2z"/>
<path d="M520 322 c0 -5 535 -8 1190 -9 669 0 1190 3 1190 8 0 5 -521 9 -1190
9 -655 0 -1190 -4 -1190 -8z"/>
<path d="M738 282 l-48 -3 0 -75 0 -74 56 0 c40 0 54 4 52 12 -3 8 -18 12 -40
10 -28 -3 -36 1 -41 17 -7 27 0 31 45 31 52 0 48 18 -4 22 -30 2 -43 8 -43 18
0 10 13 16 43 18 23 2 42 7 42 12 0 13 -10 15 -62 12z"/>
<path d="M840 273 c0 -7 11 -13 25 -13 24 0 25 -2 25 -65 0 -37 4 -65 10 -65
6 0 10 28 10 65 0 63 1 65 26 65 14 0 24 5 22 11 -5 16 -118 17 -118 2z"/>
<path d="M994 281 c-8 -9 9 -21 30 -21 23 0 24 -2 18 -65 -4 -56 -2 -65 12
-65 13 0 16 11 16 65 0 63 1 65 26 65 14 0 24 5 22 11 -3 10 -114 19 -124 10z"/>
<path d="M1210 282 l-45 -3 3 -74 4 -75 49 0 c27 0 49 5 49 10 0 6 -18 10 -40
10 -36 0 -40 3 -40 25 0 23 4 25 40 25 22 0 40 5 40 10 0 6 -18 10 -40 10 -33
0 -40 3 -40 20 0 17 7 20 40 20 22 0 40 4 40 9 0 14 -10 16 -60 13z"/>
<path d="M1570 273 c0 -7 11 -13 25 -13 24 0 25 -1 19 -65 -5 -55 -3 -65 10
-65 13 0 16 12 16 65 0 63 1 65 26 65 14 0 24 5 22 11 -5 16 -118 18 -118 2z"/>
<path d="M1748 260 c-25 -26 -29 -36 -24 -63 18 -94 150 -87 150 8 0 29 -7 43
-28 61 -36 32 -61 30 -98 -6z m80 -6 c39 -27 18 -104 -29 -104 -48 0 -67 76
-27 104 12 9 25 16 28 16 3 0 16 -7 28 -16z"/>
<path d="M1970 277 c-38 -19 -55 -61 -40 -98 15 -35 37 -49 78 -49 34 0 54 20
58 56 2 22 -1 24 -37 24 -21 0 -39 -4 -39 -10 0 -5 12 -10 26 -10 33 0 29 -33
-4 -38 -56 -8 -85 73 -38 103 19 13 29 14 45 6 24 -13 41 -14 41 -3 0 8 -44
32 -58 32 -4 0 -18 -6 -32 -13z"/>
<path d="M2168 282 l-48 -3 0 -75 0 -74 50 0 c34 0 50 4 50 13 0 9 -12 11 -40
9 -37 -4 -40 -2 -40 22 0 24 4 26 40 26 22 0 40 5 40 10 0 6 -18 10 -40 10
-33 0 -40 3 -40 20 0 17 7 20 39 20 22 0 42 4 46 9 8 14 -4 16 -57 13z"/>
<path d="M2270 273 c0 -7 12 -13 26 -13 25 0 26 0 19 -65 -5 -55 -4 -65 9 -65
13 0 16 13 16 65 0 63 1 65 26 65 14 0 24 5 22 11 -5 16 -118 18 -118 2z"/>
<path d="M2439 285 c-5 -50 1 -150 10 -153 7 -2 11 10 11 32 0 35 1 36 40 36
39 0 40 -1 40 -35 0 -24 5 -35 14 -35 11 0 14 16 12 75 -1 76 -18 108 -24 48
-3 -31 -6 -33 -43 -33 -38 0 -39 1 -39 35 0 19 -4 35 -10 35 -5 0 -10 -2 -11
-5z"/>
<path d="M2673 282 l-43 -3 0 -75 0 -74 50 0 c28 0 50 5 50 10 0 6 -18 10 -40
10 -36 0 -40 3 -40 25 0 23 4 25 40 25 22 0 40 5 40 10 0 6 -18 10 -40 10 -33
0 -40 3 -40 20 0 17 7 20 40 20 22 0 40 4 40 9 0 14 -10 16 -57 13z"/>
<path d="M520 206 l0 -76 44 0 c57 0 96 37 69 64 -5 4 -8 24 -8 44 l0 37 -52
3 -53 3 0 -75z m88 37 c-2 -12 -14 -19 -36 -21 -27 -3 -32 0 -32 17 0 17 6 21
36 21 28 0 35 -3 32 -17z m-3 -68 c0 -15 -8 -21 -32 -23 -30 -3 -33 -1 -33 23
0 24 3 26 33 23 24 -2 32 -8 32 -23z"/>
<path d="M1320 205 c0 -62 3 -75 16 -75 12 0 15 7 12 30 -3 23 -1 30 12 30 8
0 24 -13 33 -30 10 -16 25 -30 33 -30 12 0 11 6 -6 30 l-22 30 23 19 c21 16
22 22 11 45 -10 23 -17 26 -62 26 l-50 0 0 -75z m85 30 c0 -15 -8 -21 -34 -23
-28 -3 -33 -1 -27 13 3 9 6 21 6 26 0 6 12 9 28 7 19 -2 27 -9 27 -23z"/>
<path d="M2783 205 c0 -56 4 -75 14 -75 8 0 13 12 13 30 0 18 5 30 13 30 7 0
21 -13 30 -30 10 -16 25 -30 33 -30 12 0 11 6 -7 31 l-21 30 21 15 c46 33 19
74 -50 74 l-47 0 1 -75z m85 33 c-2 -17 -11 -24 -30 -26 -24 -3 -28 0 -28 22
0 22 4 26 31 26 26 0 30 -3 27 -22z"/>
<path d="M520 90 c0 -7 403 -10 1190 -10 787 0 1190 3 1190 10 0 7 -403 10
-1190 10 -787 0 -1190 -3 -1190 -10z"/>
</g>
</svg>
